<svg xmlns="http://www.w3.org/2000/svg" viewBox="0 0 336 441"><defs><style>.cls-1{fill:#2c2b2c;}.cls-2{fill:green;}.cls-3{fill:#32cd32;}.cls-4{fill:#8b4513;}.cls-5{fill:peru;}.cls-6{fill:#fdd588;}.cls-7{fill:#b22222;}.cls-8{fill:red;}.cls-9{fill:#fff;}.cls-10{fill:#00bfff;}.cls-11{fill:aqua;}</style></defs><g id="Layer_2" data-name="Layer 2"><g id="Layer_1-2" data-name="Layer 1"><rect class="cls-1" x="231" y="420" width="21" height="21"/><rect class="cls-1" x="210" y="420" width="21" height="21"/><rect class="cls-1" x="189" y="420" width="21" height="21"/><rect class="cls-1" x="126" y="420" width="21" height="21"/><rect class="cls-1" x="105" y="420" width="21" height="21"/><rect class="cls-1" x="84" y="420" width="21" height="21"/><rect class="cls-1" x="231" y="399" width="21" height="21"/><rect class="cls-2" x="210" y="399" width="21" height="21"/><rect class="cls-2" x="189" y="399" width="21" height="21"/><rect class="cls-1" x="168" y="399" width="21" height="21"/><rect class="cls-1" x="147" y="399" width="21" height="21"/><rect class="cls-3" x="126" y="399" width="21" height="21"/><rect class="cls-3" x="105" y="399" width="21" height="21"/><rect class="cls-1" x="84" y="399" width="21" height="21"/><rect class="cls-1" x="231" y="378" width="21" height="21"/><rect class="cls-4" x="210" y="378" width="21" height="21"/><rect class="cls-4" x="189" y="378" width="21" height="21"/><rect class="cls-5" x="168" y="378" width="21" height="21"/><rect class="cls-5" x="147" y="378" width="21" height="21"/><rect class="cls-5" x="126" y="378" width="21" height="21"/><rect class="cls-5" x="105" y="378" width="21" height="21"/><rect class="cls-1" x="84" y="378" width="21" height="21"/><rect class="cls-1" x="252" y="357" width="21" height="21"/><rect class="cls-1" x="231" y="357" width="21" height="21"/><rect class="cls-6" x="210" y="357" width="21" height="21"/><rect class="cls-6" x="189" y="357" width="21" height="21"/><rect class="cls-6" x="168" y="357" width="21" height="21"/><rect class="cls-6" x="147" y="357" width="21" height="21"/><rect class="cls-6" x="126" y="357" width="21" height="21"/><rect class="cls-6" x="105" y="357" width="21" height="21"/><rect class="cls-1" x="84" y="357" width="21" height="21"/><rect class="cls-1" x="63" y="357" width="21" height="21"/><rect class="cls-1" x="273" y="336" width="21" height="21"/><rect class="cls-2" x="252" y="336" width="21" height="21"/><rect class="cls-1" x="231" y="336" width="21" height="21"/><rect class="cls-6" x="210" y="336" width="21" height="21"/><rect class="cls-6" x="189" y="336" width="21" height="21"/><rect class="cls-6" x="168" y="336" width="21" height="21"/><rect class="cls-6" x="147" y="336" width="21" height="21"/><rect class="cls-6" x="126" y="336" width="21" height="21"/><rect class="cls-6" x="105" y="336" width="21" height="21"/><rect class="cls-1" x="84" y="336" width="21" height="21"/><rect class="cls-3" x="63" y="336" width="21" height="21"/><rect class="cls-1" x="42" y="336" width="21" height="21"/><rect class="cls-1" x="273" y="315" width="21" height="21"/><rect class="cls-2" x="252" y="315" width="21" height="21"/><rect class="cls-1" x="231" y="315" width="21" height="21"/><rect class="cls-7" x="210" y="315" width="21" height="21"/><rect class="cls-8" x="189" y="315" width="21" height="21"/><rect class="cls-7" x="168" y="315" width="21" height="21"/><rect class="cls-8" x="147" y="315" width="21" height="21"/><rect class="cls-7" x="126" y="315" width="21" height="21"/><rect class="cls-6" x="105" y="315" width="21" height="21"/><rect class="cls-1" x="84" y="315" width="21" height="21"/><rect class="cls-3" x="63" y="315" width="21" height="21"/><rect class="cls-1" x="42" y="315" width="21" height="21"/><rect class="cls-1" x="252" y="294" width="21" height="21"/><rect class="cls-7" x="231" y="294" width="21" height="21"/><rect class="cls-8" x="210" y="294" width="21" height="21"/><rect class="cls-1" x="189" y="294" width="21" height="21"/><rect class="cls-1" x="168" y="294" width="21" height="21"/><rect class="cls-1" x="147" y="294" width="21" height="21"/><rect class="cls-8" x="126" y="294" width="21" height="21"/><rect class="cls-7" x="105" y="294" width="21" height="21"/><rect class="cls-8" x="84" y="294" width="21" height="21"/><rect class="cls-1" x="63" y="294" width="21" height="21"/><rect class="cls-1" x="231" y="273" width="21" height="21"/><rect class="cls-1" x="210" y="273" width="21" height="21"/><rect class="cls-6" x="189" y="273" width="21" height="21"/><rect class="cls-6" x="168" y="273" width="21" height="21"/><rect class="cls-6" x="147" y="273" width="21" height="21"/><rect class="cls-1" x="126" y="273" width="21" height="21"/><rect class="cls-1" x="105" y="273" width="21" height="21"/><rect class="cls-1" x="84" y="273" width="21" height="21"/><rect class="cls-1" x="252" y="252" width="21" height="21"/><rect class="cls-6" x="231" y="252" width="21" height="21"/><rect class="cls-6" x="210" y="252" width="21" height="21"/><rect class="cls-6" x="189" y="252" width="21" height="21"/><rect class="cls-6" x="168" y="252" width="21" height="21"/><rect class="cls-6" x="147" y="252" width="21" height="21"/><rect class="cls-6" x="126" y="252" width="21" height="21"/><rect class="cls-6" x="105" y="252" width="21" height="21"/><rect class="cls-6" x="84" y="252" width="21" height="21"/><rect class="cls-1" x="63" y="252" width="21" height="21"/><rect class="cls-1" x="273" y="231" width="21" height="21"/><rect class="cls-6" x="252" y="231" width="21" height="21"/><rect class="cls-5" x="231" y="231" width="21" height="21"/><rect class="cls-5" x="210" y="231" width="21" height="21"/><rect class="cls-5" x="189" y="231" width="21" height="21"/><rect class="cls-4" x="168" y="231" width="21" height="21"/><rect class="cls-5" x="147" y="231" width="21" height="21"/><rect class="cls-5" x="126" y="231" width="21" height="21"/><rect class="cls-5" x="105" y="231" width="21" height="21"/><rect class="cls-6" x="84" y="231" width="21" height="21"/><rect class="cls-6" x="63" y="231" width="21" height="21"/><rect class="cls-1" x="42" y="231" width="21" height="21"/><line class="cls-9" x1="315" y1="210" x2="315" y2="231"/><rect class="cls-1" x="294" y="210" width="21" height="21"/><rect class="cls-6" x="273" y="210" width="21" height="21"/><rect class="cls-6" x="252" y="210" width="21" height="21"/><rect class="cls-1" x="231" y="210" width="21" height="21"/><rect class="cls-5" x="210" y="210" width="21" height="21"/><rect class="cls-1" x="189" y="210" width="21" height="21"/><rect class="cls-6" x="168" y="210" width="21" height="21"/><rect class="cls-1" x="147" y="210" width="21" height="21"/><rect class="cls-5" x="126" y="210" width="21" height="21"/><rect class="cls-1" x="105" y="210" width="21" height="21"/><rect class="cls-6" x="84" y="210" width="21" height="21"/><rect class="cls-6" x="63" y="210" width="21" height="21"/><rect class="cls-6" x="42" y="210" width="21" height="21"/><rect class="cls-1" x="21" y="210" width="21" height="21"/><rect class="cls-1" x="273" y="189" width="21" height="21"/><rect class="cls-6" x="252" y="189" width="21" height="21"/><rect class="cls-5" x="231" y="189" width="21" height="21"/><rect class="cls-1" x="210" y="189" width="21" height="21"/><rect class="cls-5" x="189" y="189" width="21" height="21"/><rect class="cls-6" x="168" y="189" width="21" height="21"/><rect class="cls-5" x="147" y="189" width="21" height="21"/><rect class="cls-1" x="126" y="189" width="21" height="21"/><rect class="cls-5" x="105" y="189" width="21" height="21"/><rect class="cls-6" x="84" y="189" width="21" height="21"/><rect class="cls-6" x="63" y="189" width="21" height="21"/><rect class="cls-1" x="42" y="189" width="21" height="21"/><line class="cls-9" x1="315" y1="168" x2="315" y2="189"/><rect class="cls-1" x="294" y="168" width="21" height="21"/><rect class="cls-1" x="273" y="168" width="21" height="21"/><rect class="cls-1" x="252" y="168" width="21" height="21"/><rect class="cls-1" x="231" y="168" width="21" height="21"/><rect class="cls-1" x="210" y="168" width="21" height="21"/><rect class="cls-1" x="189" y="168" width="21" height="21"/><rect class="cls-1" x="168" y="168" width="21" height="21"/><rect class="cls-1" x="147" y="168" width="21" height="21"/><rect class="cls-1" x="126" y="168" width="21" height="21"/><rect class="cls-1" x="105" y="168" width="21" height="21"/><rect class="cls-1" x="84" y="168" width="21" height="21"/><rect class="cls-1" x="63" y="168" width="21" height="21"/><rect class="cls-1" x="42" y="168" width="21" height="21"/><rect class="cls-1" x="21" y="168" width="21" height="21"/><polyline class="cls-9" points="336 147 315 147 315 168"/><rect class="cls-1" x="294" y="147" width="21" height="21"/><rect class="cls-2" x="273" y="147" width="21" height="21"/><rect class="cls-7" x="252" y="147" width="21" height="21"/><rect class="cls-7" x="231" y="147" width="21" height="21"/><rect class="cls-7" x="210" y="147" width="21" height="21"/><rect class="cls-8" x="189" y="147" width="21" height="21"/><rect class="cls-2" x="168" y="147" width="21" height="21"/><rect class="cls-7" x="147" y="147" width="21" height="21"/><rect class="cls-7" x="126" y="147" width="21" height="21"/><rect class="cls-7" x="105" y="147" width="21" height="21"/><rect class="cls-8" x="84" y="147" width="21" height="21"/><rect class="cls-3" x="63" y="147" width="21" height="21"/><rect class="cls-3" x="42" y="147" width="21" height="21"/><rect class="cls-1" x="21" y="147" width="21" height="21"/><rect class="cls-1" x="315" y="126" width="21" height="21"/><rect class="cls-6" x="294" y="126" width="21" height="21"/><rect class="cls-1" x="273" y="126" width="21" height="21"/><rect class="cls-7" x="252" y="126" width="21" height="21"/><rect class="cls-10" x="231" y="126" width="21" height="21"/><rect class="cls-11" x="210" y="126" width="21" height="21"/><rect class="cls-8" x="189" y="126" width="21" height="21"/><rect class="cls-7" x="168" y="126" width="21" height="21"/><rect class="cls-7" x="147" y="126" width="21" height="21"/><rect class="cls-10" x="126" y="126" width="21" height="21"/><rect class="cls-11" x="105" y="126" width="21" height="21"/><rect class="cls-8" x="84" y="126" width="21" height="21"/><rect class="cls-3" x="63" y="126" width="21" height="21"/><rect class="cls-1" x="42" y="126" width="21" height="21"/><rect class="cls-6" x="21" y="126" width="21" height="21"/><rect class="cls-1" y="126" width="21" height="21"/><line class="cls-9" y1="147" y2="126"/><rect class="cls-1" x="315" y="105" width="21" height="21"/><rect class="cls-6" x="294" y="105" width="21" height="21"/><rect class="cls-4" x="273" y="105" width="21" height="21"/><rect class="cls-1" x="252" y="105" width="21" height="21"/><rect class="cls-7" x="231" y="105" width="21" height="21"/><rect class="cls-8" x="210" y="105" width="21" height="21"/><rect class="cls-3" x="189" y="105" width="21" height="21"/><rect class="cls-3" x="168" y="105" width="21" height="21"/><rect class="cls-3" x="147" y="105" width="21" height="21"/><rect class="cls-7" x="126" y="105" width="21" height="21"/><rect class="cls-8" x="105" y="105" width="21" height="21"/><rect class="cls-3" x="84" y="105" width="21" height="21"/><rect class="cls-1" x="63" y="105" width="21" height="21"/><rect class="cls-4" x="42" y="105" width="21" height="21"/><rect class="cls-6" x="21" y="105" width="21" height="21"/><rect class="cls-1" y="105" width="21" height="21"/><line class="cls-9" y1="126" y2="105"/><rect class="cls-1" x="315" y="84" width="21" height="21"/><rect class="cls-6" x="294" y="84" width="21" height="21"/><rect class="cls-6" x="273" y="84" width="21" height="21"/><rect class="cls-6" x="252" y="84" width="21" height="21"/><rect class="cls-1" x="231" y="84" width="21" height="21"/><rect class="cls-1" x="210" y="84" width="21" height="21"/><rect class="cls-2" x="189" y="84" width="21" height="21"/><rect class="cls-2" x="168" y="84" width="21" height="21"/><rect class="cls-2" x="147" y="84" width="21" height="21"/><rect class="cls-3" x="126" y="84" width="21" height="21"/><rect class="cls-1" x="105" y="84" width="21" height="21"/><rect class="cls-1" x="84" y="84" width="21" height="21"/><rect class="cls-6" x="63" y="84" width="21" height="21"/><rect class="cls-6" x="42" y="84" width="21" height="21"/><rect class="cls-6" x="21" y="84" width="21" height="21"/><rect class="cls-1" y="84" width="21" height="21"/><line class="cls-9" y1="105" y2="84"/><rect class="cls-1" x="315" y="63" width="21" height="21"/><rect class="cls-1" x="294" y="63" width="21" height="21"/><rect class="cls-1" x="273" y="63" width="21" height="21"/><rect class="cls-1" x="252" y="63" width="21" height="21"/><rect class="cls-1" x="189" y="63" width="21" height="21"/><rect class="cls-1" x="168" y="63" width="21" height="21"/><rect class="cls-1" x="147" y="63" width="21" height="21"/><rect class="cls-1" x="126" y="63" width="21" height="21"/><rect class="cls-1" x="63" y="63" width="21" height="21"/><rect class="cls-1" x="42" y="63" width="21" height="21"/><rect class="cls-1" x="21" y="63" width="21" height="21"/><rect class="cls-1" y="63" width="21" height="21"/><line class="cls-9" x1="315" y1="63" x2="336" y2="63"/><line class="cls-9" x1="294" y1="63" x2="315" y2="63"/><line class="cls-9" x1="273" y1="63" x2="294" y2="63"/><line class="cls-9" x1="252" y1="63" x2="273" y2="63"/><rect class="cls-11" x="168" y="42" width="21" height="21"/><rect class="cls-10" x="147" y="42" width="21" height="21"/><polyline class="cls-9" points="126 63 147 63 147 42"/><line class="cls-9" x1="63" y1="63" x2="84" y2="63"/><line class="cls-9" x1="42" y1="63" x2="63" y2="63"/><line class="cls-9" x1="21" y1="63" x2="42" y2="63"/><line class="cls-9" y1="63" x2="21" y2="63"/><line class="cls-9" x1="210" y1="21" x2="210" y2="42"/><rect class="cls-10" x="189" y="21" width="21" height="21"/><rect class="cls-10" x="168" y="21" width="21" height="21"/><rect class="cls-10" x="168" width="21" height="21"/><rect class="cls-11" x="147" width="21" height="21"/><line class="cls-9" x1="147" y1="21" x2="147"/><line class="cls-9" x1="168" x2="189"/><line class="cls-9" x1="147" x2="168"/></g></g></svg>